<?xml version="1.0" standalone="no"?>
<!DOCTYPE svg PUBLIC "-//W3C//DTD SVG 20010904//EN" "http://www.w3.org/TR/2001/REC-SVG-20010904/DTD/svg10.dtd">
<svg version="1.0" xmlns="http://www.w3.org/2000/svg" width="470.000000pt" height="469.000000pt"
  viewBox="0 0 470.000000 469.000000" preserveAspectRatio="xMidYMid meet">

  <rect width="100%" height="100%" fill="white" />
  <g transform="translate(0.000000,469.000000) scale(0.100000,-0.100000)" fill="#000000" stroke="none">
    <path d="M1615 3028 c-49 -33 -199 -131 -332 -219 -134 -88 -243 -161 -243
-163 0 -2 37 5 81 16 45 10 84 16 86 14 3 -3 -82 -116 -188 -253 -384 -494
-748 -965 -783 -1012 -7 -9 -7 -12 -1 -9 12 7 326 200 440 271 44 27 100 62
125 77 25 15 95 58 155 95 61 37 143 88 183 112 39 25 72 46 72 48 0 2 -237
-46 -298 -62 -27 -6 -34 -19 130 236 l93 144 93 33 92 33 0 -165 0 -164 85 56
85 57 0 334 0 334 40 42 39 42 1 -307 0 -308 90 0 90 0 1 113 0 112 57 -112
57 -113 82 0 83 0 0 310 0 310 -80 0 -79 0 -3 -102 -3 -103 -55 102 -55 102
-89 3 -88 3 67 73 c37 40 66 74 64 76 -2 2 -44 -24 -94 -56z m-295 -458 c0
-36 -4 -41 -32 -54 -18 -7 -34 -12 -36 -11 -3 3 59 105 64 105 2 0 4 -18 4
-40z" />
    <path d="M3113 2965 l117 -129 0 -331 0 -332 85 -57 85 -56 0 160 c0 88 3 160
7 160 12 0 157 -49 169 -58 13 -8 247 -373 242 -377 -2 -2 -66 10 -143 26 -77
16 -144 28 -148 26 -5 -1 207 -136 470 -299 263 -163 479 -295 481 -293 2 2
-68 95 -155 207 -87 112 -255 329 -373 482 -118 153 -268 346 -332 429 -65 83
-116 152 -115 153 1 2 41 -5 87 -16 47 -10 86 -17 88 -15 3 2 -580 388 -650
430 -22 13 5 -23 85 -110z m327 -416 c25 -41 28 -50 13 -44 -10 4 -26 10 -35
12 -13 4 -18 16 -18 44 0 22 2 39 4 39 2 0 19 -23 36 -51z" />
    <path d="M2110 2620 l0 -310 120 0 c66 0 120 4 120 8 0 5 12 7 28 5 63 -8 158
82 187 179 26 90 15 211 -28 294 -23 45 -100 111 -143 123 -22 6 -94 11 -161
11 l-123 0 0 -310z m243 130 c80 -63 49 -270 -40 -270 l-23 0 0 145 c0 135 1
145 19 145 10 0 30 -9 44 -20z" />
    <path d="M2640 2620 l0 -310 90 0 90 0 1 113 0 112 57 -112 57 -113 82 0 83 0
0 310 0 310 -80 0 -79 0 -3 -102 -3 -103 -55 102 -55 103 -92 0 -93 0 0 -310z" />
  </g>
</svg>